<svg xmlns="http://www.w3.org/2000/svg" xmlns:xlink="http://www.w3.org/1999/xlink" viewBox="0,0,256,256" width="40px" height="40px"><g fill="#986dff" fill-rule="nonzero" stroke="none" stroke-width="1" stroke-linecap="butt" stroke-linejoin="miter" stroke-miterlimit="10" stroke-dasharray="" stroke-dashoffset="0" font-family="none" font-weight="none" font-size="none" text-anchor="none" style="mix-blend-mode: normal"><g transform="scale(5.12,5.12)"><path d="M5,4c-0.55226,0.00006 -0.99994,0.44774 -1,1v19v21c-0.00001,0.00195 -0.00001,0.00391 0,0.00586c0.00077,0.01891 0.00207,0.0378 0.00391,0.05664c0.0009,0.01631 0.00221,0.03259 0.00391,0.04883c0.00063,0.00391 0.00128,0.00782 0.00195,0.01172c0.00319,0.03014 0.00776,0.06012 0.01367,0.08984c0.006,0.02764 0.01317,0.055 0.02148,0.08203c0.00544,0.01643 0.0113,0.03271 0.01758,0.04883c0.00719,0.01977 0.01501,0.03931 0.02344,0.05859c0.01299,0.02865 0.02733,0.05668 0.04297,0.08398c0.00869,0.01587 0.01781,0.0315 0.02734,0.04688c0.00692,0.01186 0.01408,0.02359 0.02148,0.03516c0.01248,0.01734 0.0255,0.03428 0.03906,0.05078c0.00763,0.00991 0.01544,0.01968 0.02344,0.0293c0.01321,0.01539 0.02689,0.03037 0.04102,0.04492c0.00829,0.00927 0.01676,0.01839 0.02539,0.02734c0.0213,0.01984 0.04346,0.03874 0.06641,0.05664c0.00195,0.00196 0.0039,0.00391 0.00586,0.00586c0.02269,0.01794 0.04615,0.03488 0.07031,0.05078c0.00453,0.00329 0.00909,0.00655 0.01367,0.00977c0.00324,0.00197 0.0065,0.00392 0.00977,0.00586c0.02415,0.01472 0.04891,0.0284 0.07422,0.04102c0.02989,0.0152 0.06053,0.02889 0.0918,0.04102c0.01995,0.00781 0.04014,0.01497 0.06055,0.02148c0.01423,0.00422 0.02856,0.00813 0.04297,0.01172c0.00195,0.00066 0.0039,0.00131 0.00586,0.00195c0.02709,0.007 0.05445,0.01287 0.08203,0.01758c0.0201,0.00322 0.04029,0.00583 0.06055,0.00781c0.01817,0.00245 0.03641,0.00441 0.05469,0.00586c0.00651,0.00006 0.01302,0.00006 0.01953,0c0.01171,0.00086 0.02343,0.00151 0.03516,0.00195c0.00977,0.00014 0.01953,0.00014 0.0293,0h39.9707c0.40437,-0.00016 0.76885,-0.24381 0.92359,-0.6174c0.15474,-0.37359 0.06927,-0.8036 -0.21656,-1.08963l-19.29297,-19.29297l19.29297,-19.29297c0.28583,-0.28603 0.37129,-0.71604 0.21656,-1.08963c-0.15474,-0.37359 -0.51922,-0.61724 -0.92359,-0.6174h-21zM6,6h15.58594l-15.58594,15.58594zM24.41406,6h18.17188l-18.29297,18.29297l-18.29297,18.29297v-18.17188zM25,26.41406l17.58594,17.58594h-35.17188z"></path></g></g></svg>